<mxfile host="app.diagrams.net" agent="Mozilla/5.0 (Windows NT 10.0; Win64; x64) AppleWebKit/537.36 (KHTML, like Gecko) Chrome/129.0.0.0 Safari/537.36 Edg/129.0.0.0" version="24.7.17">
  <diagram id="C5RBs43oDa-KdzZeNtuy" name="Page-1">
    <mxGraphModel dx="1310" dy="1848" grid="1" gridSize="10" guides="1" tooltips="1" connect="1" arrows="1" fold="1" page="1" pageScale="1" pageWidth="827" pageHeight="1169" math="0" shadow="0">
      <root>
        <mxCell id="WIyWlLk6GJQsqaUBKTNV-0" />
        <mxCell id="WIyWlLk6GJQsqaUBKTNV-1" parent="WIyWlLk6GJQsqaUBKTNV-0" />
        <mxCell id="xsOswrhXE7gqBYXkBlJc-1" value="Inventory" style="swimlane;fontStyle=1;align=center;verticalAlign=top;childLayout=stackLayout;horizontal=1;startSize=26;horizontalStack=0;resizeParent=1;resizeParentMax=0;resizeLast=0;collapsible=1;marginBottom=0;whiteSpace=wrap;html=1;" parent="WIyWlLk6GJQsqaUBKTNV-1" vertex="1">
          <mxGeometry x="390" y="-90" width="200" height="220" as="geometry" />
        </mxCell>
        <mxCell id="xsOswrhXE7gqBYXkBlJc-2" value="+ itemList: ArrayList&amp;lt;Item&amp;gt;" style="text;strokeColor=none;fillColor=none;align=left;verticalAlign=top;spacingLeft=4;spacingRight=4;overflow=hidden;rotatable=0;points=[[0,0.5],[1,0.5]];portConstraint=eastwest;whiteSpace=wrap;html=1;" parent="xsOswrhXE7gqBYXkBlJc-1" vertex="1">
          <mxGeometry y="26" width="200" height="34" as="geometry" />
        </mxCell>
        <mxCell id="xsOswrhXE7gqBYXkBlJc-3" value="" style="line;strokeWidth=1;fillColor=none;align=left;verticalAlign=middle;spacingTop=-1;spacingLeft=3;spacingRight=3;rotatable=0;labelPosition=right;points=[];portConstraint=eastwest;strokeColor=inherit;" parent="xsOswrhXE7gqBYXkBlJc-1" vertex="1">
          <mxGeometry y="60" width="200" height="8" as="geometry" />
        </mxCell>
        <mxCell id="xsOswrhXE7gqBYXkBlJc-4" value="&lt;div&gt;&lt;span data-darkreader-inline-color=&quot;&quot; data-darkreader-inline-bgcolor=&quot;&quot; style=&quot;background-color: initial; color: rgb(0, 0, 0); --darkreader-inline-bgcolor: initial; --darkreader-inline-color: #e8e6e3;&quot;&gt;+ getItems(Item);&lt;/span&gt;&lt;/div&gt;&lt;div&gt;&lt;span style=&quot;background-color: initial;&quot;&gt;+ addItem(item);&lt;/span&gt;&lt;/div&gt;&lt;div&gt;+ removeitem(Item);&lt;br&gt;&lt;/div&gt;&lt;div&gt;+ sellItem(item);&lt;/div&gt;&lt;div&gt;+ showItems(String);&lt;/div&gt;&lt;div&gt;+ addArmor(armor)&lt;/div&gt;&lt;div&gt;+ addWeapon(weapon);&lt;/div&gt;&lt;div&gt;+ addConsumable(consumable);&lt;/div&gt;" style="text;strokeColor=none;fillColor=none;align=left;verticalAlign=top;spacingLeft=4;spacingRight=4;overflow=hidden;rotatable=0;points=[[0,0.5],[1,0.5]];portConstraint=eastwest;whiteSpace=wrap;html=1;" parent="xsOswrhXE7gqBYXkBlJc-1" vertex="1">
          <mxGeometry y="68" width="200" height="152" as="geometry" />
        </mxCell>
        <mxCell id="xsOswrhXE7gqBYXkBlJc-5" value="Item" style="swimlane;fontStyle=1;align=center;verticalAlign=top;childLayout=stackLayout;horizontal=1;startSize=26;horizontalStack=0;resizeParent=1;resizeParentMax=0;resizeLast=0;collapsible=1;marginBottom=0;whiteSpace=wrap;html=1;" parent="WIyWlLk6GJQsqaUBKTNV-1" vertex="1">
          <mxGeometry x="380" y="210" width="190" height="200" as="geometry" />
        </mxCell>
        <mxCell id="xsOswrhXE7gqBYXkBlJc-6" value="+ name: String&lt;div&gt;+ weight: int&lt;/div&gt;&lt;div&gt;+ goldValue: int&lt;/div&gt;" style="text;strokeColor=none;fillColor=none;align=left;verticalAlign=top;spacingLeft=4;spacingRight=4;overflow=hidden;rotatable=0;points=[[0,0.5],[1,0.5]];portConstraint=eastwest;whiteSpace=wrap;html=1;" parent="xsOswrhXE7gqBYXkBlJc-5" vertex="1">
          <mxGeometry y="26" width="190" height="64" as="geometry" />
        </mxCell>
        <mxCell id="xsOswrhXE7gqBYXkBlJc-7" value="" style="line;strokeWidth=1;fillColor=none;align=left;verticalAlign=middle;spacingTop=-1;spacingLeft=3;spacingRight=3;rotatable=0;labelPosition=right;points=[];portConstraint=eastwest;strokeColor=inherit;" parent="xsOswrhXE7gqBYXkBlJc-5" vertex="1">
          <mxGeometry y="90" width="190" height="8" as="geometry" />
        </mxCell>
        <mxCell id="xsOswrhXE7gqBYXkBlJc-8" value="+" style="text;strokeColor=none;fillColor=none;align=left;verticalAlign=top;spacingLeft=4;spacingRight=4;overflow=hidden;rotatable=0;points=[[0,0.5],[1,0.5]];portConstraint=eastwest;whiteSpace=wrap;html=1;" parent="xsOswrhXE7gqBYXkBlJc-5" vertex="1">
          <mxGeometry y="98" width="190" height="102" as="geometry" />
        </mxCell>
        <mxCell id="xsOswrhXE7gqBYXkBlJc-9" value="Armor" style="swimlane;fontStyle=1;align=center;verticalAlign=top;childLayout=stackLayout;horizontal=1;startSize=26;horizontalStack=0;resizeParent=1;resizeParentMax=0;resizeLast=0;collapsible=1;marginBottom=0;whiteSpace=wrap;html=1;" parent="WIyWlLk6GJQsqaUBKTNV-1" vertex="1">
          <mxGeometry x="460" y="499" width="180" height="248" as="geometry" />
        </mxCell>
        <mxCell id="xsOswrhXE7gqBYXkBlJc-10" value="&lt;div&gt;+ super(name, weight, value, player )&lt;br&gt;&lt;/div&gt;&lt;div&gt;+ List&amp;lt;Item&amp;gt; armor;&lt;/div&gt;" style="text;strokeColor=none;fillColor=none;align=left;verticalAlign=top;spacingLeft=4;spacingRight=4;overflow=hidden;rotatable=0;points=[[0,0.5],[1,0.5]];portConstraint=eastwest;whiteSpace=wrap;html=1;" parent="xsOswrhXE7gqBYXkBlJc-9" vertex="1">
          <mxGeometry y="26" width="180" height="124" as="geometry" />
        </mxCell>
        <mxCell id="xsOswrhXE7gqBYXkBlJc-11" value="" style="line;strokeWidth=1;fillColor=none;align=left;verticalAlign=middle;spacingTop=-1;spacingLeft=3;spacingRight=3;rotatable=0;labelPosition=right;points=[];portConstraint=eastwest;strokeColor=inherit;" parent="xsOswrhXE7gqBYXkBlJc-9" vertex="1">
          <mxGeometry y="150" width="180" height="8" as="geometry" />
        </mxCell>
        <mxCell id="xsOswrhXE7gqBYXkBlJc-12" value="&lt;div&gt;+ addArmor(armor)&lt;/div&gt;&lt;div&gt;+ equip(armor);&lt;/div&gt;&lt;div&gt;+ unequip(armor);&lt;/div&gt;" style="text;strokeColor=none;fillColor=none;align=left;verticalAlign=top;spacingLeft=4;spacingRight=4;overflow=hidden;rotatable=0;points=[[0,0.5],[1,0.5]];portConstraint=eastwest;whiteSpace=wrap;html=1;" parent="xsOswrhXE7gqBYXkBlJc-9" vertex="1">
          <mxGeometry y="158" width="180" height="90" as="geometry" />
        </mxCell>
        <mxCell id="xsOswrhXE7gqBYXkBlJc-13" value="Consumable" style="swimlane;fontStyle=1;align=center;verticalAlign=top;childLayout=stackLayout;horizontal=1;startSize=26;horizontalStack=0;resizeParent=1;resizeParentMax=0;resizeLast=0;collapsible=1;marginBottom=0;whiteSpace=wrap;html=1;" parent="WIyWlLk6GJQsqaUBKTNV-1" vertex="1">
          <mxGeometry x="660" y="499" width="320" height="200" as="geometry" />
        </mxCell>
        <mxCell id="xsOswrhXE7gqBYXkBlJc-14" value="+ super(name, weight, value, player, type, effectAmount)&lt;div&gt;+ type: String&lt;/div&gt;&lt;div&gt;+ effectAmount: int&lt;/div&gt;" style="text;html=1;align=left;verticalAlign=middle;resizable=0;points=[];autosize=1;strokeColor=none;fillColor=none;" parent="xsOswrhXE7gqBYXkBlJc-13" vertex="1">
          <mxGeometry y="26" width="320" height="60" as="geometry" />
        </mxCell>
        <mxCell id="xsOswrhXE7gqBYXkBlJc-15" value="" style="line;strokeWidth=1;fillColor=none;align=left;verticalAlign=middle;spacingTop=-1;spacingLeft=3;spacingRight=3;rotatable=0;labelPosition=right;points=[];portConstraint=eastwest;strokeColor=inherit;" parent="xsOswrhXE7gqBYXkBlJc-13" vertex="1">
          <mxGeometry y="86" width="320" height="44" as="geometry" />
        </mxCell>
        <mxCell id="xsOswrhXE7gqBYXkBlJc-16" value="&lt;div&gt;&lt;br&gt;&lt;/div&gt;use(type);" style="text;strokeColor=none;fillColor=none;align=left;verticalAlign=top;spacingLeft=4;spacingRight=4;overflow=hidden;rotatable=0;points=[[0,0.5],[1,0.5]];portConstraint=eastwest;whiteSpace=wrap;html=1;" parent="xsOswrhXE7gqBYXkBlJc-13" vertex="1">
          <mxGeometry y="130" width="320" height="70" as="geometry" />
        </mxCell>
        <mxCell id="xsOswrhXE7gqBYXkBlJc-17" value="«interface»&lt;br&gt;&lt;b&gt;Equippable&lt;/b&gt;&lt;div&gt;+equip()&lt;/div&gt;&lt;div&gt;+unequip()&lt;/div&gt;" style="html=1;whiteSpace=wrap;" parent="WIyWlLk6GJQsqaUBKTNV-1" vertex="1">
          <mxGeometry x="299.5" y="507" width="114" height="60" as="geometry" />
        </mxCell>
        <mxCell id="xsOswrhXE7gqBYXkBlJc-18" value="«interface»&lt;br&gt;&lt;div&gt;&lt;b&gt;Usable&lt;br&gt;&lt;/b&gt;&lt;/div&gt;&lt;div&gt;+ use()&lt;/div&gt;" style="html=1;whiteSpace=wrap;" parent="WIyWlLk6GJQsqaUBKTNV-1" vertex="1">
          <mxGeometry x="1050" y="517" width="130" height="50" as="geometry" />
        </mxCell>
        <mxCell id="xsOswrhXE7gqBYXkBlJc-19" style="edgeStyle=orthogonalEdgeStyle;rounded=0;orthogonalLoop=1;jettySize=auto;html=1;entryX=0.194;entryY=1.02;entryDx=0;entryDy=0;entryPerimeter=0;" parent="WIyWlLk6GJQsqaUBKTNV-1" target="xsOswrhXE7gqBYXkBlJc-8" edge="1">
          <mxGeometry relative="1" as="geometry">
            <mxPoint x="170" y="499" as="sourcePoint" />
            <Array as="points">
              <mxPoint x="171" y="499" />
              <mxPoint x="171" y="440" />
              <mxPoint x="410" y="440" />
              <mxPoint x="410" y="414" />
              <mxPoint x="411" y="414" />
            </Array>
          </mxGeometry>
        </mxCell>
        <mxCell id="xsOswrhXE7gqBYXkBlJc-20" style="edgeStyle=orthogonalEdgeStyle;rounded=0;orthogonalLoop=1;jettySize=auto;html=1;entryX=0.494;entryY=1.02;entryDx=0;entryDy=0;entryPerimeter=0;" parent="WIyWlLk6GJQsqaUBKTNV-1" source="xsOswrhXE7gqBYXkBlJc-9" target="xsOswrhXE7gqBYXkBlJc-8" edge="1">
          <mxGeometry relative="1" as="geometry">
            <Array as="points">
              <mxPoint x="540" y="455" />
              <mxPoint x="460" y="455" />
              <mxPoint x="460" y="414" />
              <mxPoint x="459" y="414" />
            </Array>
          </mxGeometry>
        </mxCell>
        <mxCell id="xsOswrhXE7gqBYXkBlJc-21" style="edgeStyle=orthogonalEdgeStyle;rounded=0;orthogonalLoop=1;jettySize=auto;html=1;entryX=0.806;entryY=1.029;entryDx=0;entryDy=0;entryPerimeter=0;" parent="WIyWlLk6GJQsqaUBKTNV-1" source="xsOswrhXE7gqBYXkBlJc-13" target="xsOswrhXE7gqBYXkBlJc-8" edge="1">
          <mxGeometry relative="1" as="geometry">
            <Array as="points">
              <mxPoint x="740" y="440" />
              <mxPoint x="509" y="440" />
            </Array>
          </mxGeometry>
        </mxCell>
        <mxCell id="xsOswrhXE7gqBYXkBlJc-22" value="" style="endArrow=diamondThin;endFill=1;endSize=24;html=1;rounded=0;exitX=0.5;exitY=0;exitDx=0;exitDy=0;" parent="WIyWlLk6GJQsqaUBKTNV-1" source="xsOswrhXE7gqBYXkBlJc-5" edge="1">
          <mxGeometry width="160" relative="1" as="geometry">
            <mxPoint x="150" y="210" as="sourcePoint" />
            <mxPoint x="490" y="130" as="targetPoint" />
          </mxGeometry>
        </mxCell>
        <mxCell id="xsOswrhXE7gqBYXkBlJc-23" value="" style="rounded=0;orthogonalLoop=1;jettySize=auto;html=1;endArrow=halfCircle;endFill=0;endSize=6;strokeWidth=1;sketch=0;exitX=1.004;exitY=0.605;exitDx=0;exitDy=0;entryX=0.129;entryY=0.643;entryDx=0;entryDy=0;entryPerimeter=0;exitPerimeter=0;" parent="WIyWlLk6GJQsqaUBKTNV-1" target="xsOswrhXE7gqBYXkBlJc-25" edge="1" source="xsOswrhXE7gqBYXkBlJc-14">
          <mxGeometry relative="1" as="geometry">
            <mxPoint x="820" y="552" as="sourcePoint" />
            <mxPoint x="770" y="250" as="targetPoint" />
            <Array as="points" />
          </mxGeometry>
        </mxCell>
        <mxCell id="xsOswrhXE7gqBYXkBlJc-24" value="" style="rounded=0;orthogonalLoop=1;jettySize=auto;html=1;endArrow=oval;endFill=0;sketch=0;sourcePerimeterSpacing=0;targetPerimeterSpacing=0;endSize=10;exitX=0;exitY=0.5;exitDx=0;exitDy=0;entryX=0.67;entryY=0.848;entryDx=0;entryDy=0;entryPerimeter=0;" parent="WIyWlLk6GJQsqaUBKTNV-1" source="xsOswrhXE7gqBYXkBlJc-18" target="xsOswrhXE7gqBYXkBlJc-25" edge="1">
          <mxGeometry relative="1" as="geometry">
            <mxPoint x="760" y="384" as="sourcePoint" />
            <mxPoint x="780" y="384" as="targetPoint" />
          </mxGeometry>
        </mxCell>
        <mxCell id="xsOswrhXE7gqBYXkBlJc-25" value="" style="ellipse;whiteSpace=wrap;html=1;align=center;aspect=fixed;fillColor=none;strokeColor=none;resizable=0;perimeter=centerPerimeter;rotatable=0;allowArrows=0;points=[];outlineConnect=1;" parent="WIyWlLk6GJQsqaUBKTNV-1" vertex="1">
          <mxGeometry x="1010" y="537" width="10" height="10" as="geometry" />
        </mxCell>
        <mxCell id="xsOswrhXE7gqBYXkBlJc-26" value="" style="rounded=0;orthogonalLoop=1;jettySize=auto;html=1;endArrow=halfCircle;endFill=0;endSize=6;strokeWidth=1;sketch=0;exitX=-0.014;exitY=0.813;exitDx=0;exitDy=0;exitPerimeter=0;" parent="WIyWlLk6GJQsqaUBKTNV-1" source="xsOswrhXE7gqBYXkBlJc-10" edge="1">
          <mxGeometry relative="1" as="geometry">
            <mxPoint x="434" y="635" as="sourcePoint" />
            <mxPoint x="430" y="540" as="targetPoint" />
          </mxGeometry>
        </mxCell>
        <mxCell id="xsOswrhXE7gqBYXkBlJc-27" value="" style="rounded=0;orthogonalLoop=1;jettySize=auto;html=1;endArrow=oval;endFill=0;sketch=0;sourcePerimeterSpacing=0;targetPerimeterSpacing=0;endSize=10;exitX=1;exitY=0.5;exitDx=0;exitDy=0;" parent="WIyWlLk6GJQsqaUBKTNV-1" source="xsOswrhXE7gqBYXkBlJc-17" edge="1">
          <mxGeometry relative="1" as="geometry">
            <mxPoint x="394" y="635" as="sourcePoint" />
            <mxPoint x="430" y="540" as="targetPoint" />
          </mxGeometry>
        </mxCell>
        <mxCell id="xsOswrhXE7gqBYXkBlJc-28" value="" style="ellipse;whiteSpace=wrap;html=1;align=center;aspect=fixed;fillColor=none;strokeColor=none;resizable=0;perimeter=centerPerimeter;rotatable=0;allowArrows=0;points=[];outlineConnect=1;" parent="WIyWlLk6GJQsqaUBKTNV-1" vertex="1">
          <mxGeometry x="409" y="630" width="10" height="10" as="geometry" />
        </mxCell>
        <mxCell id="xsOswrhXE7gqBYXkBlJc-29" value="" style="rounded=0;orthogonalLoop=1;jettySize=auto;html=1;endArrow=halfCircle;endFill=0;endSize=6;strokeWidth=1;sketch=0;exitX=1;exitY=0.5;exitDx=0;exitDy=0;" parent="WIyWlLk6GJQsqaUBKTNV-1" source="xsOswrhXE7gqBYXkBlJc-41" edge="1">
          <mxGeometry relative="1" as="geometry">
            <mxPoint x="250.80000000000018" y="540.616" as="sourcePoint" />
            <mxPoint x="280" y="538" as="targetPoint" />
          </mxGeometry>
        </mxCell>
        <mxCell id="xsOswrhXE7gqBYXkBlJc-30" value="" style="rounded=0;orthogonalLoop=1;jettySize=auto;html=1;endArrow=oval;endFill=0;sketch=0;sourcePerimeterSpacing=0;targetPerimeterSpacing=0;endSize=10;exitX=0;exitY=0.5;exitDx=0;exitDy=0;" parent="WIyWlLk6GJQsqaUBKTNV-1" source="xsOswrhXE7gqBYXkBlJc-17" edge="1">
          <mxGeometry relative="1" as="geometry">
            <mxPoint x="264" y="615" as="sourcePoint" />
            <mxPoint x="280" y="538" as="targetPoint" />
          </mxGeometry>
        </mxCell>
        <mxCell id="xsOswrhXE7gqBYXkBlJc-31" value="" style="ellipse;whiteSpace=wrap;html=1;align=center;aspect=fixed;fillColor=none;strokeColor=none;resizable=0;perimeter=centerPerimeter;rotatable=0;allowArrows=0;points=[];outlineConnect=1;" parent="WIyWlLk6GJQsqaUBKTNV-1" vertex="1">
          <mxGeometry x="279" y="610" width="10" height="10" as="geometry" />
        </mxCell>
        <mxCell id="xsOswrhXE7gqBYXkBlJc-32" value="&lt;div&gt;RestoreConsumable&lt;/div&gt;" style="swimlane;fontStyle=1;align=center;verticalAlign=top;childLayout=stackLayout;horizontal=1;startSize=26;horizontalStack=0;resizeParent=1;resizeParentMax=0;resizeLast=0;collapsible=1;marginBottom=0;whiteSpace=wrap;html=1;" parent="WIyWlLk6GJQsqaUBKTNV-1" vertex="1">
          <mxGeometry x="1280" y="970" width="160" height="188" as="geometry" />
        </mxCell>
        <mxCell id="xsOswrhXE7gqBYXkBlJc-33" value="+ restoreValue: int" style="text;strokeColor=none;fillColor=none;align=left;verticalAlign=top;spacingLeft=4;spacingRight=4;overflow=hidden;rotatable=0;points=[[0,0.5],[1,0.5]];portConstraint=eastwest;whiteSpace=wrap;html=1;" parent="xsOswrhXE7gqBYXkBlJc-32" vertex="1">
          <mxGeometry y="26" width="160" height="64" as="geometry" />
        </mxCell>
        <mxCell id="xsOswrhXE7gqBYXkBlJc-34" value="" style="line;strokeWidth=1;fillColor=none;align=left;verticalAlign=middle;spacingTop=-1;spacingLeft=3;spacingRight=3;rotatable=0;labelPosition=right;points=[];portConstraint=eastwest;strokeColor=inherit;" parent="xsOswrhXE7gqBYXkBlJc-32" vertex="1">
          <mxGeometry y="90" width="160" height="8" as="geometry" />
        </mxCell>
        <mxCell id="xsOswrhXE7gqBYXkBlJc-35" value="+ useConsumable(Player)" style="text;strokeColor=none;fillColor=none;align=left;verticalAlign=top;spacingLeft=4;spacingRight=4;overflow=hidden;rotatable=0;points=[[0,0.5],[1,0.5]];portConstraint=eastwest;whiteSpace=wrap;html=1;" parent="xsOswrhXE7gqBYXkBlJc-32" vertex="1">
          <mxGeometry y="98" width="160" height="90" as="geometry" />
        </mxCell>
        <mxCell id="xsOswrhXE7gqBYXkBlJc-36" value="BuffConsumable" style="swimlane;fontStyle=1;align=center;verticalAlign=top;childLayout=stackLayout;horizontal=1;startSize=26;horizontalStack=0;resizeParent=1;resizeParentMax=0;resizeLast=0;collapsible=1;marginBottom=0;whiteSpace=wrap;html=1;" parent="WIyWlLk6GJQsqaUBKTNV-1" vertex="1">
          <mxGeometry x="1480" y="970" width="160" height="188" as="geometry" />
        </mxCell>
        <mxCell id="xsOswrhXE7gqBYXkBlJc-37" value="+ buffValue: int" style="text;strokeColor=none;fillColor=none;align=left;verticalAlign=top;spacingLeft=4;spacingRight=4;overflow=hidden;rotatable=0;points=[[0,0.5],[1,0.5]];portConstraint=eastwest;whiteSpace=wrap;html=1;" parent="xsOswrhXE7gqBYXkBlJc-36" vertex="1">
          <mxGeometry y="26" width="160" height="64" as="geometry" />
        </mxCell>
        <mxCell id="xsOswrhXE7gqBYXkBlJc-38" value="" style="line;strokeWidth=1;fillColor=none;align=left;verticalAlign=middle;spacingTop=-1;spacingLeft=3;spacingRight=3;rotatable=0;labelPosition=right;points=[];portConstraint=eastwest;strokeColor=inherit;" parent="xsOswrhXE7gqBYXkBlJc-36" vertex="1">
          <mxGeometry y="90" width="160" height="8" as="geometry" />
        </mxCell>
        <mxCell id="xsOswrhXE7gqBYXkBlJc-39" value="+ useConsumable(Player)&amp;nbsp;" style="text;strokeColor=none;fillColor=none;align=left;verticalAlign=top;spacingLeft=4;spacingRight=4;overflow=hidden;rotatable=0;points=[[0,0.5],[1,0.5]];portConstraint=eastwest;whiteSpace=wrap;html=1;" parent="xsOswrhXE7gqBYXkBlJc-36" vertex="1">
          <mxGeometry y="98" width="160" height="90" as="geometry" />
        </mxCell>
        <mxCell id="xsOswrhXE7gqBYXkBlJc-40" value="Weapon" style="swimlane;fontStyle=1;align=center;verticalAlign=top;childLayout=stackLayout;horizontal=1;startSize=26;horizontalStack=0;resizeParent=1;resizeParentMax=0;resizeLast=0;collapsible=1;marginBottom=0;whiteSpace=wrap;html=1;" parent="WIyWlLk6GJQsqaUBKTNV-1" vertex="1">
          <mxGeometry x="50" y="499" width="180" height="240" as="geometry" />
        </mxCell>
        <mxCell id="xsOswrhXE7gqBYXkBlJc-41" value="&lt;div&gt;+ super(name, weight, value, player)&lt;/div&gt;&lt;div&gt;List&amp;lt;Item&amp;gt; weapons;&lt;/div&gt;&lt;div&gt;&lt;br&gt;&lt;/div&gt;" style="text;strokeColor=none;fillColor=none;align=left;verticalAlign=top;spacingLeft=4;spacingRight=4;overflow=hidden;rotatable=0;points=[[0,0.5],[1,0.5]];portConstraint=eastwest;whiteSpace=wrap;html=1;" parent="xsOswrhXE7gqBYXkBlJc-40" vertex="1">
          <mxGeometry y="26" width="180" height="114" as="geometry" />
        </mxCell>
        <mxCell id="xsOswrhXE7gqBYXkBlJc-42" value="" style="line;strokeWidth=1;fillColor=none;align=left;verticalAlign=middle;spacingTop=-1;spacingLeft=3;spacingRight=3;rotatable=0;labelPosition=right;points=[];portConstraint=eastwest;strokeColor=inherit;" parent="xsOswrhXE7gqBYXkBlJc-40" vertex="1">
          <mxGeometry y="140" width="180" height="8" as="geometry" />
        </mxCell>
        <mxCell id="xsOswrhXE7gqBYXkBlJc-43" value="&lt;div&gt;+ addWeapon(weapon);&lt;/div&gt;&lt;div&gt;+ equip(weapon);&lt;/div&gt;&lt;div&gt;+ unequip(weapon);&lt;/div&gt;" style="text;strokeColor=none;fillColor=none;align=left;verticalAlign=top;spacingLeft=4;spacingRight=4;overflow=hidden;rotatable=0;points=[[0,0.5],[1,0.5]];portConstraint=eastwest;whiteSpace=wrap;html=1;" parent="xsOswrhXE7gqBYXkBlJc-40" vertex="1">
          <mxGeometry y="148" width="180" height="92" as="geometry" />
        </mxCell>
        <mxCell id="xsOswrhXE7gqBYXkBlJc-44" value="Player" style="swimlane;fontStyle=1;align=center;verticalAlign=top;childLayout=stackLayout;horizontal=1;startSize=26;horizontalStack=0;resizeParent=1;resizeParentMax=0;resizeLast=0;collapsible=1;marginBottom=0;whiteSpace=wrap;html=1;" parent="WIyWlLk6GJQsqaUBKTNV-1" vertex="1">
          <mxGeometry x="370" y="-480" width="260" height="330" as="geometry" />
        </mxCell>
        <mxCell id="xsOswrhXE7gqBYXkBlJc-45" value="+ health: int&lt;div&gt;+ mana: int&lt;/div&gt;&lt;div&gt;+ weapon: Weapon&lt;/div&gt;&lt;div&gt;+ armor: Armor&lt;/div&gt;&lt;div&gt;+ MAX_HP: int&lt;/div&gt;&lt;div&gt;+ MAX_MANA: int&lt;/div&gt;&lt;div&gt;+ inventory: Inventory&lt;/div&gt;&lt;div&gt;+ gold : int&amp;nbsp;&lt;/div&gt;&lt;div&gt;&lt;br&gt;&lt;/div&gt;" style="text;strokeColor=none;fillColor=none;align=left;verticalAlign=top;spacingLeft=4;spacingRight=4;overflow=hidden;rotatable=0;points=[[0,0.5],[1,0.5]];portConstraint=eastwest;whiteSpace=wrap;html=1;" parent="xsOswrhXE7gqBYXkBlJc-44" vertex="1">
          <mxGeometry y="26" width="260" height="164" as="geometry" />
        </mxCell>
        <mxCell id="xsOswrhXE7gqBYXkBlJc-46" value="" style="line;strokeWidth=1;fillColor=none;align=left;verticalAlign=middle;spacingTop=-1;spacingLeft=3;spacingRight=3;rotatable=0;labelPosition=right;points=[];portConstraint=eastwest;strokeColor=inherit;" parent="xsOswrhXE7gqBYXkBlJc-44" vertex="1">
          <mxGeometry y="190" width="260" height="8" as="geometry" />
        </mxCell>
        <mxCell id="xsOswrhXE7gqBYXkBlJc-47" value="&lt;div&gt;+ get/setHP(): int&lt;/div&gt;&lt;div&gt;+ get/setMana(): int&lt;/div&gt;&lt;div&gt;+ get/setArmor(): armor&lt;/div&gt;&lt;div&gt;+ get/setWeapon(): weapon&lt;/div&gt;&lt;div&gt;+ get/setGold(): int&lt;/div&gt;&lt;div&gt;&lt;br&gt;&lt;/div&gt;" style="text;strokeColor=none;fillColor=none;align=left;verticalAlign=top;spacingLeft=4;spacingRight=4;overflow=hidden;rotatable=0;points=[[0,0.5],[1,0.5]];portConstraint=eastwest;whiteSpace=wrap;html=1;" parent="xsOswrhXE7gqBYXkBlJc-44" vertex="1">
          <mxGeometry y="198" width="260" height="132" as="geometry" />
        </mxCell>
        <mxCell id="xsOswrhXE7gqBYXkBlJc-48" value="" style="endArrow=diamondThin;endFill=1;endSize=24;html=1;rounded=0;entryX=0.449;entryY=0.984;entryDx=0;entryDy=0;entryPerimeter=0;exitX=0.5;exitY=0;exitDx=0;exitDy=0;" parent="WIyWlLk6GJQsqaUBKTNV-1" target="xsOswrhXE7gqBYXkBlJc-47" edge="1" source="xsOswrhXE7gqBYXkBlJc-1">
          <mxGeometry width="160" relative="1" as="geometry">
            <mxPoint x="540" y="110" as="sourcePoint" />
            <mxPoint x="579" y="109.98599999999999" as="targetPoint" />
          </mxGeometry>
        </mxCell>
      </root>
    </mxGraphModel>
  </diagram>
</mxfile>
